HIERARCHY
ROOT Hips
{
	OFFSET 0.0000 0.0000 0.0000
	CHANNELS 6 Xposition Yposition Zposition Zrotation Xrotation Yrotation
	JOINT Spine1
	{
		OFFSET -0.0137 5.0038 -0.0537
		CHANNELS 3 Zrotation Xrotation Yrotation
		JOINT Spine2
		{
			OFFSET -0.0000 7.1253 -0.0298
			CHANNELS 3 Zrotation Xrotation Yrotation
			JOINT Chest
			{
				OFFSET -0.0000 7.5501 -0.8160
				CHANNELS 3 Zrotation Xrotation Yrotation
				JOINT Neck1
				{
					OFFSET -0.1817 26.3113 -0.5533
					CHANNELS 3 Zrotation Xrotation Yrotation
					JOINT Neck2
					{
						OFFSET -0.0000 7.7094 2.3026
						CHANNELS 3 Zrotation Xrotation Yrotation
						JOINT Head
						{
							OFFSET -0.0000 6.1289 1.9537
							CHANNELS 3 Zrotation Xrotation Yrotation
							JOINT Jaw
							{
								OFFSET 0.0026 0.4756 3.0949
								CHANNELS 3 Zrotation Xrotation Yrotation
								End Site
								{
									OFFSET 0.0 1.0 0.0
								}
							}
							JOINT LeftEye
							{
								OFFSET 3.2064 5.3802 7.5869
								CHANNELS 3 Zrotation Xrotation Yrotation
								End Site
								{
									OFFSET 0.0 1.0 0.0
								}
							}
							JOINT RightEye
							{
								OFFSET -3.2224 5.3619 7.5582
								CHANNELS 3 Zrotation Xrotation Yrotation
								End Site
								{
									OFFSET 0.0 1.0 0.0
								}
							}
						}
					}
				}
				JOINT LeftShoulder
				{
					OFFSET 1.6217 23.2372 5.1134
					CHANNELS 3 Zrotation Xrotation Yrotation
					JOINT LeftArm
					{
						OFFSET 14.9198 0.0000 -5.5023
						CHANNELS 3 Zrotation Xrotation Yrotation
						JOINT LeftForeArm
						{
							OFFSET 28.7393 0.0000 -0.0026
							CHANNELS 3 Zrotation Xrotation Yrotation
							JOINT LeftHand
							{
								OFFSET 27.0940 -0.0000 0.0026
								CHANNELS 3 Zrotation Xrotation Yrotation
								JOINT LeftHandThumbEnd
								{
									OFFSET 12.2686 -3.2202 4.8331
									CHANNELS 3 Zrotation Xrotation Yrotation
									End Site
									{
										OFFSET 0.0 1.0 0.0
									}
								}
								JOINT LeftHandMiddleEnd
								{
									OFFSET 19.0120 -0.3129 -0.0340
									CHANNELS 3 Zrotation Xrotation Yrotation
									End Site
									{
										OFFSET 0.0 1.0 0.0
									}
								}
							}
						}
					}
				}
				JOINT RightShoulder
				{
					OFFSET -1.3801 23.1803 5.2142
					CHANNELS 3 Zrotation Xrotation Yrotation
					JOINT RightArm
					{
						OFFSET -15.0372 0.0000 -5.5456
						CHANNELS 3 Zrotation Xrotation Yrotation
						JOINT RightForeArm
						{
							OFFSET -28.7366 0.0000 -0.0026
							CHANNELS 3 Zrotation Xrotation Yrotation
							JOINT RightHand
							{
								OFFSET -27.1336 -0.0000 0.0026
								CHANNELS 3 Zrotation Xrotation Yrotation
								JOINT RightHandThumbEnd
								{
									OFFSET -12.2642 -3.2115 4.8040
									CHANNELS 3 Zrotation Xrotation Yrotation
									End Site
									{
										OFFSET 0.0 1.0 0.0
									}
								}
								JOINT RightHandMiddleEnd
								{
									OFFSET -19.0006 -0.3066 -0.0316
									CHANNELS 3 Zrotation Xrotation Yrotation
									End Site
									{
										OFFSET 0.0 1.0 0.0
									}
								}
							}
						}
					}
				}
			}
		}
	}
	JOINT LeftLeg
	{
		OFFSET 10.0432 -8.4345 2.5957
		CHANNELS 3 Zrotation Xrotation Yrotation
		JOINT LeftShin
		{
			OFFSET -0.0000 -43.2218 -0.8029
			CHANNELS 3 Zrotation Xrotation Yrotation
			JOINT LeftFoot
			{
				OFFSET 0.0000 -42.1551 -3.4815
				CHANNELS 3 Zrotation Xrotation Yrotation
				JOINT LeftToeBase
				{
					OFFSET 0.0000 -5.0595 13.2315
					CHANNELS 3 Zrotation Xrotation Yrotation
					End Site
					{
						OFFSET 0.0 1.0 0.0
					}
				}
			}
		}
	}
	JOINT RightLeg
	{
		OFFSET -10.0473 -8.2953 2.6203
		CHANNELS 3 Zrotation Xrotation Yrotation
		JOINT RightShin
		{
			OFFSET 0.0000 -43.3622 -0.8056
			CHANNELS 3 Zrotation Xrotation Yrotation
			JOINT RightFoot
			{
				OFFSET 0.0000 -42.1174 -3.4784
				CHANNELS 3 Zrotation Xrotation Yrotation
				JOINT RightToeBase
				{
					OFFSET -0.0000 -5.0796 13.2842
					CHANNELS 3 Zrotation Xrotation Yrotation
					End Site
					{
						OFFSET 0.0 1.0 0.0
					}
				}
			}
		}
	}
}
MOTION
Frames: 9
Frame Time: 0.033333
4.0892 90.0008 -1.1351 -0.7914 1.2221 -14.9080 -0.6082 7.6503 -0.6540 -0.6085 -2.4369 -2.1994 -2.2813 12.5922 -6.4511 -13.0118 10.2849 7.4163 4.5189 -4.1392 20.5870 -3.7621 -17.0621 24.0097 -0.0554 -0.0001 -0.1226 0.6045 -10.6025 -3.9833 -0.7282 -10.5419 3.7949 14.6208 11.2304 -13.6932 -62.8096 -36.9200 43.5527 -1.6745 0.3946 -57.4716 29.0257 -30.0451 13.1706 -15.5516 10.5617 15.1661 -59.5601 2.0288 2.3869 5.0128 19.6782 3.4623 58.0075 40.8265 20.6492 0.7193 1.9565 103.5007 32.9315 0.3566 5.7844 15.9828 7.3084 -16.4106 49.0025 -3.7300 -4.7613 9.9421 -42.1305 29.6486 -0.3263 44.0630 -0.4804 -11.1100 -4.2574 -15.1410 1.6027 0.1029 -2.0118 -13.7289 -25.8047 -30.8103 0.6651 49.0225 1.0532 18.8427 -20.9873 -7.5960 -1.4451 -0.1000 1.1027
4.1449 89.8051 -1.0787 -0.7293 0.9742 -15.3991 -0.6691 7.6429 -0.6466 -0.6326 -2.4063 -2.0868 -2.4485 12.7058 -6.3591 -13.3373 10.2344 7.5329 4.5553 -4.1291 20.6985 -3.6212 -17.3003 24.0876 -0.0528 0.0061 -0.1247 0.6037 -10.5987 -3.9870 -0.7221 -10.5308 3.7928 14.5577 11.0708 -13.5818 -63.0678 -36.9421 44.7367 -1.6696 0.4309 -58.0457 28.6233 -29.3191 13.9547 -15.5818 10.5651 15.1802 -59.6004 2.0328 2.3708 4.7543 19.7399 3.5498 59.1118 40.8327 21.8573 0.5570 1.9435 103.6484 32.6538 -0.3633 5.6516 15.9698 7.3493 -16.4108 49.0631 -3.7033 -4.7254 10.0930 -42.0969 30.0505 -0.3511 44.6859 -0.5218 -10.9534 -4.6528 -14.9939 1.6035 0.1778 -1.9947 -14.0569 -25.9843 -30.4394 0.6851 49.5379 1.0887 18.7970 -21.0863 -7.2159 -1.4431 -0.0771 1.1047
4.1694 89.6841 -1.0398 -0.6734 0.7860 -15.7154 -0.7109 7.6259 -0.6327 -0.6564 -2.3994 -2.0047 -2.5567 12.8057 -6.2391 -13.6603 10.2043 7.6493 4.5876 -4.1298 20.7239 -3.5100 -17.4498 24.1144 -0.0487 0.0115 -0.1319 0.6080 -10.6090 -3.9934 -0.7182 -10.5371 3.7831 14.5273 10.9270 -13.4312 -63.0450 -36.7102 45.4794 -1.7024 0.3886 -58.6751 28.1351 -28.4370 14.6939 -15.6096 10.5318 15.1594 -59.6011 2.0306 2.3384 4.5447 19.8462 3.6369 60.0607 40.8482 22.9775 0.3747 1.9183 103.8070 32.2534 -1.0691 5.6947 15.9466 7.4121 -16.4119 49.1391 -3.6352 -4.7075 10.2092 -42.0782 30.3217 -0.3713 45.1378 -0.5500 -10.8704 -4.9444 -14.8710 1.6049 0.1940 -1.9830 -14.2986 -26.1218 -30.1915 0.6935 49.9755 1.0923 18.6972 -21.1866 -6.9310 -1.4420 -0.0443 1.0992
4.1358 89.5902 -0.9897 -0.6314 0.6140 -15.9138 -0.7290 7.6100 -0.6409 -0.6892 -2.3758 -1.9079 -2.6095 12.8639 -6.1357 -13.9878 10.1758 7.7307 4.6037 -4.1399 20.7333 -3.3949 -17.5215 24.1075 -0.0465 0.0136 -0.1293 0.6138 -10.6198 -3.9920 -0.7194 -10.5462 3.7836 14.5124 10.8034 -13.2951 -62.7191 -36.2205 45.7627 -1.6475 0.3540 -59.2795 27.5736 -27.5738 15.3666 -15.6334 10.5301 15.1957 -59.6062 2.0259 2.3146 4.3490 19.9324 3.7187 60.8935 40.8589 24.0324 0.1815 1.9077 103.9041 31.7237 -1.6291 5.9660 15.9133 7.4471 -16.3662 49.1846 -3.5592 -4.6717 10.3507 -42.0014 30.4467 -0.3985 45.4094 -0.5847 -10.8806 -5.1390 -14.7370 1.6095 0.1649 -1.9767 -14.4727 -26.1699 -30.0478 0.6924 50.2953 1.0903 18.5886 -21.2888 -6.7138 -1.4403 -0.0011 1.0944
4.0656 89.5408 -0.9500 -0.6034 0.4780 -16.0384 -0.7355 7.5834 -0.6488 -0.7144 -2.3666 -1.8278 -2.6452 12.8988 -6.0266 -14.2832 10.1402 7.7734 4.6298 -4.1571 20.7472 -3.2836 -17.5080 24.1053 -0.0449 0.0108 -0.1200 0.6165 -10.6299 -3.9831 -0.7185 -10.5568 3.7926 14.4829 10.7265 -13.1914 -62.1703 -35.6346 45.7999 -1.6014 0.3399 -59.8214 26.9415 -26.7525 15.9697 -15.6438 10.4830 15.2064 -59.5270 2.0126 2.3057 4.1934 20.0123 3.7745 61.5268 40.8441 24.9339 0.0743 1.8863 103.9925 31.2094 -2.0611 6.3315 15.8638 7.4587 -16.3024 49.2289 -3.4839 -4.6465 10.4881 -41.9080 30.5168 -0.4213 45.5341 -0.6116 -10.9522 -5.2622 -14.6293 1.6140 0.1009 -1.9708 -14.5844 -26.1665 -30.0204 0.6858 50.5099 1.0772 18.5194 -21.3491 -6.5766 -1.4414 0.0045 1.0983
3.9625 89.5288 -0.9272 -0.5845 0.3552 -16.1164 -0.7403 7.5401 -0.6667 -0.7383 -2.3635 -1.7530 -2.6812 12.9248 -5.9299 -14.5412 10.0821 7.8002 4.6939 -4.1786 20.7757 -3.1827 -17.4155 24.1088 -0.0428 0.0079 -0.1166 0.6172 -10.6368 -3.9811 -0.7147 -10.5607 3.7953 14.4112 10.6998 -13.0693 -61.5216 -35.0752 45.6621 -1.5183 0.3864 -60.2744 26.2485 -26.0106 16.4387 -15.6541 10.4509 15.2579 -59.4491 1.9989 2.3337 4.0476 20.0571 3.8228 62.0623 40.8258 25.7873 0.0196 1.9295 104.0654 30.7347 -2.3168 6.8153 15.8492 7.4524 -16.2329 49.2306 -3.4340 -4.6349 10.6624 -41.7745 30.5017 -0.4382 45.5558 -0.6238 -11.0641 -5.3463 -14.5103 1.6232 0.0320 -1.9601 -14.6533 -26.0898 -30.0784 0.6740 50.5981 1.0651 18.4906 -21.4146 -6.4765 -1.4440 -0.0240 1.1037
3.8147 89.5330 -0.9081 -0.5864 0.2537 -16.1980 -0.7429 7.4886 -0.6784 -0.7585 -2.3594 -1.6929 -2.7291 12.9518 -5.8495 -14.7553 10.0024 7.8287 4.7389 -4.1948 20.8461 -3.0823 -17.2991 24.0450 -0.0400 0.0069 -0.1116 0.6135 -10.6374 -3.9773 -0.7049 -10.5615 3.7994 14.2762 10.6894 -12.9496 -60.7455 -34.6426 45.4483 -1.4292 0.3840 -60.6904 25.6050 -25.3856 16.6785 -15.6795 10.4493 15.2877 -59.3543 1.9921 2.3540 3.9283 20.0766 3.8754 62.4946 40.8397 26.6709 0.0024 1.9438 104.1899 30.3788 -2.4354 7.2802 15.8407 7.4132 -16.1334 49.2352 -3.4140 -4.6248 10.8701 -41.6675 30.4330 -0.4434 45.5398 -0.6194 -11.2325 -5.3542 -14.4342 1.6313 -0.0539 -1.9589 -14.6503 -26.0182 -30.1867 0.6663 50.6923 1.0495 18.4509 -21.5006 -6.3203 -1.4482 -0.0871 1.1068
3.6529 89.5241 -0.9192 -0.6004 0.1668 -16.2566 -0.7587 7.4451 -0.6796 -0.7794 -2.3733 -1.6748 -2.7832 12.9986 -5.7434 -14.9066 9.8863 7.8722 4.7495 -4.2025 20.9063 -3.0025 -17.1696 23.9943 -0.0369 0.0079 -0.1116 0.6127 -10.6328 -3.9759 -0.6978 -10.5559 3.7955 14.0781 10.6599 -12.8640 -59.9014 -34.4242 45.2879 -1.4446 0.2862 -61.0427 25.0555 -24.7753 16.7446 -15.7170 10.4615 15.2995 -59.3099 1.9875 2.3823 3.8109 20.0365 3.9078 62.9612 40.9065 27.6473 0.0085 1.9637 104.3156 30.1971 -2.2985 7.6729 15.8576 7.3820 -16.0820 49.2049 -3.4175 -4.6254 11.1301 -41.6221 30.3035 -0.4370 45.5704 -0.6053 -11.4420 -5.3483 -14.3467 1.6390 -0.0985 -1.9518 -14.6023 -25.9590 -30.2902 0.6601 50.8393 1.0291 18.4104 -21.6779 -6.1694 -1.4534 -0.1014 1.1041
3.4562 89.4809 -0.9639 -0.6362 0.1007 -16.2960 -0.7785 7.4058 -0.6645 -0.8032 -2.3826 -1.6699 -2.8344 13.0399 -5.6408 -15.0134 9.7460 7.9597 4.7434 -4.2068 20.8998 -2.9522 -17.0487 23.9360 -0.0342 0.0096 -0.1109 0.6123 -10.6266 -3.9733 -0.6923 -10.5484 3.7935 13.8586 10.6707 -12.8423 -59.1471 -34.4058 45.2609 -1.4799 0.1791 -61.3360 24.6011 -24.1861 16.7520 -15.7155 10.4966 15.2915 -59.2595 2.0041 2.4039 3.7257 19.9554 3.9180 63.3902 40.9430 28.5698 0.0896 1.8768 104.3553 30.1772 -1.9184 8.0457 15.8503 7.3570 -16.0507 49.1075 -3.4088 -4.6150 11.4091 -41.6260 30.1562 -0.4275 45.5973 -0.5862 -11.6026 -5.3127 -14.3051 1.6428 -0.1444 -1.9424 -14.5125 -25.8941 -30.3899 0.6534 50.9926 1.0050 18.3600 -21.9167 -6.0684 -1.4602 -0.0850 1.1022
